<?xml version="1.0" standalone="no"?>
<!DOCTYPE svg PUBLIC "-//W3C//DTD SVG 20010904//EN"
 "http://www.w3.org/TR/2001/REC-SVG-20010904/DTD/svg10.dtd">
<svg version="1.0" xmlns="http://www.w3.org/2000/svg"
 width="251.000000pt" height="215.000000pt" viewBox="0 0 251.000000 215.000000"
 preserveAspectRatio="xMidYMid meet">
<metadata>
Created by potrace 1.10, written by Peter Selinger 2001-2011
</metadata>
<g transform="translate(0.000000,215.000000) scale(0.100000,-0.100000)"
fill="#ffffff" stroke="none">
<path d="M355 1795 c-60 -41 -120 -84 -132 -96 -46 -43 -14 -119 50 -119 20 0
52 13 84 35 29 19 57 35 63 35 11 0 15 -635 4 -664 -5 -13 -23 -16 -95 -16
-78 0 -91 -3 -109 -22 -39 -42 -19 -101 41 -118 44 -13 434 -13 478 0 60 17
80 76 41 118 -18 19 -31 22 -110 22 l-89 0 -3 429 c-3 405 -4 430 -22 450 -36
40 -79 28 -201 -54z"/>
<path d="M1030 1861 c-126 -41 -219 -137 -255 -264 -13 -47 -16 -95 -13 -270
l3 -213 38 -77 c63 -128 164 -195 310 -206 l82 -6 3 -268 2 -267 55 0 54 0 3
123 3 122 125 0 125 0 3 -122 3 -123 54 0 55 0 0 285 0 285 -55 0 -54 0 -3
-112 -3 -113 -127 -3 -127 -3 -3 120 c-3 112 -2 121 17 130 50 23 106 85 142
158 l38 77 3 213 c3 175 0 223 -13 270 -31 108 -97 188 -198 240 -44 23 -67
27 -147 30 -52 1 -106 -1 -120 -6z m231 -176 c27 -19 54 -51 71 -84 28 -53 28
-54 28 -251 0 -197 0 -198 -28 -251 -17 -34 -44 -65 -71 -84 -39 -28 -50 -30
-126 -30 -76 0 -87 2 -126 30 -27 19 -54 50 -71 84 -28 53 -28 54 -28 247 0
208 5 234 55 300 40 53 98 76 182 72 61 -3 78 -8 114 -33z"/>
<path d="M1830 1861 c-126 -41 -219 -137 -255 -264 -13 -47 -16 -95 -13 -270
l3 -213 38 -77 c42 -85 89 -132 177 -175 49 -24 66 -27 155 -27 87 0 107 3
155 26 85 41 135 90 177 176 l38 77 3 213 c3 175 0 223 -13 270 -31 108 -97
188 -198 240 -44 23 -67 27 -147 30 -52 1 -106 -1 -120 -6z m231 -176 c27 -19
54 -51 71 -84 28 -53 28 -54 28 -251 0 -197 0 -198 -28 -251 -17 -34 -44 -65
-71 -84 -39 -28 -50 -30 -126 -30 -76 0 -87 2 -126 30 -27 19 -54 50 -71 84
-28 53 -28 54 -28 247 0 208 5 234 55 300 40 53 98 76 182 72 61 -3 78 -8 114
-33z"/>
<path d="M1760 655 l0 -44 106 -3 106 -3 -116 -147 c-110 -139 -116 -149 -116
-192 l0 -46 200 0 200 0 0 45 0 44 -131 3 -131 3 116 147 c110 139 116 149
116 192 l0 46 -175 0 -175 0 0 -45z"/>
</g>
</svg>
