<?xml version="1.0" standalone="no"?>
<!DOCTYPE svg PUBLIC "-//W3C//DTD SVG 20010904//EN"
 "http://www.w3.org/TR/2001/REC-SVG-20010904/DTD/svg10.dtd">
<svg version="1.0" xmlns="http://www.w3.org/2000/svg"
 width="156.000000pt" height="247.000000pt" viewBox="0 0 156.000000 247.000000"
 preserveAspectRatio="xMidYMid meet">
<metadata>
Created by potrace 1.10, written by Peter Selinger 2001-2011
</metadata>
<g transform="translate(0.000000,247.000000) scale(0.100000,-0.100000)"
fill="#ffffff" stroke="none">
<path d="M537 2392 c-13 -15 -17 -39 -17 -115 0 -88 2 -97 22 -111 12 -9 35
-16 50 -16 26 0 28 -3 28 -40 l0 -41 133 3 132 3 3 38 c3 34 6 37 33 37 54 0
69 28 69 128 0 138 10 132 -234 132 -184 0 -204 -2 -219 -18z"/>
<path d="M1307 2052 c-20 -22 -22 -55 -5 -82 10 -16 9 -23 -10 -43 l-22 -23
53 -52 c29 -29 57 -52 63 -52 6 0 19 9 28 19 17 18 19 18 46 3 27 -16 30 -16
57 4 53 39 45 66 -49 160 -69 68 -90 84 -115 84 -16 0 -37 -8 -46 -18z"/>
<path d="M670 2013 c-138 -18 -280 -78 -387 -163 -68 -54 -155 -164 -197 -247
-49 -99 -70 -196 -70 -328 0 -137 16 -209 70 -322 107 -224 323 -378 580 -414
219 -30 469 61 626 229 178 190 244 461 173 707 -40 138 -86 216 -190 321 -76
77 -104 98 -185 137 -52 26 -121 54 -154 62 -63 16 -209 26 -266 18z m50 -173
c0 -27 3 -30 30 -30 27 0 30 3 30 30 0 22 5 30 18 30 27 0 136 -28 181 -46 40
-16 40 -16 26 -44 -13 -26 -13 -28 11 -41 23 -12 27 -11 44 10 l17 24 31 -22
c17 -12 56 -49 87 -83 l56 -63 -25 -18 c-22 -16 -24 -21 -14 -43 8 -17 17 -23
27 -18 48 19 49 19 75 -66 14 -44 26 -97 26 -116 0 -31 -2 -34 -30 -34 -27 0
-30 -3 -30 -30 0 -27 3 -30 30 -30 28 0 30 -2 30 -40 0 -23 -12 -77 -26 -121
-22 -64 -30 -79 -43 -73 -40 16 -50 15 -61 -7 -11 -19 -10 -24 5 -35 10 -7 23
-15 29 -17 6 -2 -7 -26 -30 -52 -52 -63 -136 -133 -141 -119 -2 6 -10 19 -17
29 -11 15 -16 16 -35 5 -22 -11 -23 -21 -7 -61 5 -12 -4 -20 -37 -33 -54 -20
-178 -47 -189 -40 -4 3 -8 18 -8 35 0 26 -3 29 -30 29 -28 0 -30 -3 -30 -35 0
-19 -1 -35 -3 -35 -23 0 -133 26 -175 42 -55 20 -56 24 -38 69 5 10 -1 19 -19
27 -22 10 -27 9 -41 -13 l-16 -25 -43 31 c-43 31 -125 123 -125 141 0 4 11 13
25 20 24 11 24 12 8 39 -16 26 -18 27 -45 13 -27 -14 -28 -14 -43 23 -19 45
-45 148 -45 181 0 18 6 22 30 22 27 0 30 3 30 30 0 27 -3 30 -31 30 l-30 0 7
48 c10 74 44 172 60 179 8 3 21 -1 30 -8 14 -11 19 -9 34 11 19 25 19 25 -7
45 l-25 21 45 55 c24 30 63 68 86 84 43 29 51 28 64 -10 2 -6 14 -5 31 3 21 9
26 17 21 30 -4 9 -9 22 -12 29 -6 15 52 40 132 58 91 20 95 20 95 -15z"/>
<path d="M750 1518 c0 -123 4 -228 8 -234 7 -10 387 -234 397 -234 12 0 46 96
56 159 38 229 -115 455 -348 516 -31 8 -70 15 -85 15 l-28 0 0 -222z"/>
<path d="M202 323 c-32 -28 -37 -59 -10 -66 17 -5 28 1 45 21 18 22 25 25 40
16 37 -23 28 -52 -41 -125 -36 -38 -66 -78 -66 -89 0 -19 7 -20 96 -20 93 0
95 1 92 23 -3 19 -10 23 -56 27 l-53 5 45 43 c57 55 73 99 52 140 -8 16 -23
32 -31 36 -32 12 -93 6 -113 -11z"/>
<path d="M442 334 c-40 -18 -62 -163 -33 -231 22 -54 95 -70 136 -29 42 42 46
182 6 236 -13 18 -28 26 -57 27 -21 1 -45 -1 -52 -3z m68 -53 c11 -21 14 -139
4 -165 -10 -26 -43 -19 -55 12 -15 38 -7 151 12 163 21 13 27 11 39 -10z"/>
<path d="M1092 318 c2 -17 11 -24 31 -26 23 -3 27 0 27 22 0 22 -4 26 -31 26
-26 0 -30 -3 -27 -22z"/>
<path d="M812 254 c-12 -8 -22 -10 -22 -5 0 6 -11 11 -25 11 -25 0 -25 0 -25
-100 0 -100 0 -100 25 -100 23 0 24 3 27 71 3 75 17 99 52 86 13 -5 16 -21 16
-82 l0 -75 30 0 29 0 3 78 c3 73 4 77 27 80 33 5 41 -12 41 -90 0 -66 1 -68
25 -68 25 0 25 1 25 85 0 72 -3 88 -20 105 -24 24 -57 26 -88 4 -20 -14 -24
-14 -44 0 -12 9 -29 16 -38 16 -9 0 -26 -7 -38 -16z"/>
<path d="M1282 254 c-12 -8 -22 -10 -22 -5 0 6 -11 11 -25 11 -25 0 -25 0 -25
-100 0 -100 0 -100 25 -100 24 0 25 2 25 63 0 73 15 101 51 95 23 -3 24 -7 27
-80 l3 -78 30 0 31 0 -3 86 c-4 76 -7 88 -28 105 -28 23 -59 24 -89 3z"/>
<path d="M1090 160 l0 -100 30 0 30 0 0 100 0 100 -30 0 -30 0 0 -100z"/>
</g>
</svg>
