<?xml version="1.0" standalone="no"?>
<!DOCTYPE svg PUBLIC "-//W3C//DTD SVG 20010904//EN"
 "http://www.w3.org/TR/2001/REC-SVG-20010904/DTD/svg10.dtd">
<svg version="1.0" xmlns="http://www.w3.org/2000/svg"
 width="300.000000pt" height="300.000000pt" viewBox="0 0 300.000000 300.000000"
 preserveAspectRatio="xMidYMid meet">
<metadata>
Created by potrace 1.10, written by Peter Selinger 2001-2011
</metadata>
<g transform="translate(0.000000,300.000000) scale(0.100000,-0.100000)"
fill="#ffffff" stroke="none">
<path d="M1236 2060 c-27 -5 -77 -22 -110 -39 -227 -113 -339 -367 -323 -731
12 -273 87 -450 240 -564 93 -69 272 -98 412 -66 124 28 253 124 320 238 17
29 33 52 36 52 4 0 10 -17 14 -37 13 -75 58 -192 84 -223 47 -57 136 -58 201
-3 57 47 109 187 110 291 0 38 -2 42 -24 42 -20 0 -25 -6 -30 -44 -10 -63 -43
-108 -93 -125 -56 -20 -96 -2 -135 58 -37 59 -72 172 -65 214 3 18 48 223 101
456 53 233 96 430 96 438 0 11 -23 13 -122 11 l-123 -3 -27 -130 c-16 -71 -36
-163 -44 -204 l-17 -74 -27 75 c-69 189 -166 318 -265 352 -63 21 -145 27
-209 16z m190 -126 c82 -39 177 -191 242 -390 l30 -90 -29 -141 c-73 -351
-149 -511 -269 -562 -128 -55 -240 25 -288 206 -60 220 -50 634 19 818 26 70
74 132 119 156 44 24 130 25 176 3z"/>
</g>
</svg>
