<?xml version="1.0" standalone="no"?>
<!DOCTYPE svg PUBLIC "-//W3C//DTD SVG 20010904//EN"
 "http://www.w3.org/TR/2001/REC-SVG-20010904/DTD/svg10.dtd">
<svg version="1.0" xmlns="http://www.w3.org/2000/svg"
 width="168.000000pt" height="168.000000pt" viewBox="0 0 168.000000 168.000000"
 preserveAspectRatio="xMidYMid meet">
<metadata>
Created by potrace 1.10, written by Peter Selinger 2001-2011
</metadata>
<g transform="translate(0.000000,168.000000) scale(0.100000,-0.100000)"
fill="#ffffff" stroke="none">
<path d="M731 1343 c-61 -22 -133 -96 -154 -158 -15 -42 -17 -105 -17 -497 l0
-448 40 0 40 0 0 115 0 115 41 -29 c64 -47 129 -64 224 -59 66 3 91 10 127 31
99 57 151 149 151 263 0 110 -40 180 -142 250 -1 2 9 19 24 38 99 130 58 303
-87 366 -69 30 -185 36 -247 13z m192 -75 c52 -16 104 -68 113 -113 16 -85
-33 -166 -112 -187 -42 -12 -44 -14 -44 -49 0 -36 1 -36 48 -43 27 -3 67 -18
89 -33 121 -78 116 -268 -9 -351 -35 -23 -54 -27 -122 -30 -75 -3 -85 -1 -133
28 -36 20 -61 45 -80 77 l-28 48 0 271 0 270 27 41 c48 73 149 102 251 71z"/>
<path d="M1258 679 c-61 -42 -73 -70 -40 -88 14 -7 27 -5 51 10 17 10 34 19
36 19 3 0 5 -70 5 -155 l0 -155 -38 0 c-46 0 -76 -19 -70 -46 3 -18 13 -19
138 -19 125 0 135 1 138 19 6 27 -24 46 -70 46 l-38 0 -2 203 -3 202 -25 2
c-16 2 -47 -13 -82 -38z"/>
</g>
</svg>
