<?xml version="1.0" standalone="no"?>
<!DOCTYPE svg PUBLIC "-//W3C//DTD SVG 20010904//EN"
 "http://www.w3.org/TR/2001/REC-SVG-20010904/DTD/svg10.dtd">
<svg version="1.0" xmlns="http://www.w3.org/2000/svg"
 width="161.000000pt" height="248.000000pt" viewBox="0 0 161.000000 248.000000"
 preserveAspectRatio="xMidYMid meet">
<metadata>
Created by potrace 1.10, written by Peter Selinger 2001-2011
</metadata>
<g transform="translate(0.000000,248.000000) scale(0.100000,-0.100000)"
fill="#ffffff" stroke="none">
<path d="M562 2384 c-20 -14 -22 -23 -22 -112 0 -53 4 -103 9 -111 5 -8 26
-17 47 -20 36 -6 39 -9 42 -44 l3 -37 135 0 134 0 0 40 c0 39 1 40 33 40 55 0
67 22 67 128 0 136 7 132 -233 132 -158 0 -197 -3 -215 -16z"/>
<path d="M1330 2040 c-22 -22 -25 -51 -9 -82 9 -17 7 -24 -10 -41 l-21 -21 57
-58 57 -58 22 21 c18 17 26 19 42 10 31 -16 60 -13 82 9 37 37 26 61 -69 153
-93 92 -116 102 -151 67z"/>
<path d="M591 1981 c-219 -56 -410 -221 -504 -436 -14 -34 -34 -103 -43 -155
-57 -327 105 -645 401 -791 97 -47 173 -68 280 -76 392 -28 746 271 784 664
34 347 -173 666 -505 779 -107 37 -301 44 -413 15z m151 -158 c2 -22 9 -29 31
-31 24 -3 27 0 27 29 l0 32 59 -6 c48 -5 164 -39 180 -53 2 -2 -3 -14 -12 -28
-16 -23 -15 -25 10 -41 25 -17 27 -17 40 1 7 10 13 22 13 26 0 5 14 1 31 -9
36 -21 139 -131 139 -148 0 -7 -10 -19 -21 -27 -20 -12 -20 -16 -8 -36 8 -13
21 -21 29 -19 8 3 21 6 29 8 20 5 61 -97 68 -167 6 -52 5 -52 -23 -56 -25 -3
-29 -7 -29 -33 0 -26 4 -30 29 -33 28 -4 29 -4 23 -55 -5 -48 -39 -162 -52
-176 -3 -3 -15 0 -25 7 -28 17 -35 15 -47 -10 -9 -19 -7 -26 15 -44 l26 -21
-80 -82 c-44 -44 -84 -81 -90 -81 -6 0 -17 11 -24 25 -12 23 -14 23 -42 9 -29
-15 -29 -16 -13 -41 9 -14 13 -29 8 -33 -14 -14 -126 -48 -181 -56 l-52 -7 0
32 c0 28 -3 31 -30 31 -27 0 -30 -3 -30 -30 0 -22 -5 -30 -17 -30 -28 0 -137
28 -182 46 -42 16 -42 17 -25 42 16 24 15 26 -7 43 -24 18 -24 17 -45 -9 l-22
-26 -45 37 c-50 41 -117 118 -117 134 0 5 11 15 25 21 25 12 25 13 9 37 -11
18 -22 24 -33 19 -38 -15 -46 -9 -68 56 -12 36 -24 86 -28 113 l-7 47 31 0
c30 0 32 2 29 33 -2 27 -8 33 -31 35 -15 2 -27 9 -27 15 1 32 31 149 46 179
22 43 19 41 45 27 20 -10 25 -9 41 11 19 23 19 24 -6 39 -14 9 -26 20 -26 25
0 4 36 45 81 89 l80 81 22 -27 c21 -26 23 -27 45 -12 17 13 20 20 12 35 -5 10
-10 23 -10 28 0 18 132 60 192 61 33 1 37 -2 40 -26z"/>
<path d="M668 1715 c-88 -22 -157 -62 -223 -129 -233 -233 -156 -614 150 -752
87 -39 224 -45 315 -14 172 58 293 198 322 374 28 169 -61 366 -208 458 -103
65 -248 91 -356 63z"/>
<path d="M1110 307 c0 -31 5 -35 35 -29 18 3 25 11 25 28 0 20 -5 24 -30 24
-25 0 -30 -4 -30 -23z"/>
<path d="M752 148 c3 -102 3 -103 28 -103 24 0 25 3 28 70 3 73 13 95 42 95
24 0 30 -20 30 -101 0 -67 1 -69 25 -69 24 0 25 3 25 59 0 80 13 113 43 109
20 -3 22 -9 27 -83 5 -78 6 -80 33 -83 l27 -3 0 83 c0 103 -13 128 -69 128
-20 0 -42 -5 -48 -11 -8 -8 -17 -8 -31 0 -28 15 -75 14 -91 -1 -11 -10 -14
-10 -18 0 -3 6 -16 12 -29 12 l-25 0 3 -102z"/>
<path d="M1110 145 l0 -105 30 0 30 0 0 105 0 105 -30 0 -30 0 0 -105z"/>
<path d="M1224 237 c-3 -8 -4 -54 -2 -103 3 -88 3 -89 30 -92 l27 -3 3 77 c2
60 7 79 21 88 12 8 22 8 35 0 13 -9 18 -28 20 -88 3 -73 4 -76 27 -76 25 0 25
1 25 89 0 68 -4 93 -16 105 -18 18 -66 21 -95 6 -13 -7 -19 -7 -19 0 0 15 -50
12 -56 -3z"/>
</g>
</svg>
