<?xml version="1.0" standalone="no"?>
<!DOCTYPE svg PUBLIC "-//W3C//DTD SVG 20010904//EN"
 "http://www.w3.org/TR/2001/REC-SVG-20010904/DTD/svg10.dtd">
<svg version="1.0" xmlns="http://www.w3.org/2000/svg"
 width="156.000000pt" height="247.000000pt" viewBox="0 0 156.000000 247.000000"
 preserveAspectRatio="xMidYMid meet">
<metadata>
Created by potrace 1.10, written by Peter Selinger 2001-2011
</metadata>
<g transform="translate(0.000000,247.000000) scale(0.100000,-0.100000)"
fill="#ffffff" stroke="none">
<path d="M574 2436 c-16 -12 -20 -29 -22 -113 -4 -111 8 -138 63 -145 27 -3
30 -7 33 -41 l3 -38 122 3 122 3 3 38 c3 34 6 37 34 37 48 0 57 22 58 137 0
138 8 133 -220 133 -136 0 -181 -3 -196 -14z"/>
<path d="M1283 2066 c-14 -30 -15 -39 -4 -60 11 -20 11 -28 -3 -53 l-17 -28
52 -55 51 -55 18 23 c21 26 36 28 44 7 9 -24 52 -18 70 10 29 45 21 67 -61
156 -92 101 -123 112 -150 55z"/>
<path d="M623 2026 c-62 -15 -153 -50 -163 -64 -3 -5 -27 -21 -54 -36 -92 -53
-219 -210 -264 -326 -43 -108 -55 -176 -55 -310 -1 -163 14 -235 79 -366 53
-108 139 -212 222 -267 31 -20 66 -44 77 -52 62 -48 225 -80 355 -72 85 5 238
47 263 72 7 6 35 26 64 45 101 68 212 212 261 340 84 219 61 519 -53 700 -14
22 -25 42 -25 46 0 15 -137 152 -183 183 -29 19 -58 41 -65 48 -7 7 -50 24
-95 39 -101 33 -266 42 -364 20z m117 -166 c0 -27 3 -30 30 -30 27 0 30 3 30
30 0 26 4 30 27 30 38 0 145 -31 161 -47 7 -7 18 -13 24 -13 5 0 7 -7 4 -15
-3 -8 -9 -21 -12 -29 -3 -9 3 -19 17 -26 19 -11 24 -9 39 10 l18 23 25 -20
c35 -27 127 -135 127 -149 0 -6 -10 -18 -21 -26 -19 -12 -20 -17 -10 -37 8
-13 18 -20 27 -17 8 3 20 8 28 12 16 6 30 -25 51 -116 22 -97 20 -120 -10
-120 -22 0 -25 -4 -25 -35 0 -31 3 -35 25 -35 22 0 25 -4 25 -36 0 -35 -20
-120 -42 -176 -10 -26 -12 -27 -37 -13 -24 12 -28 12 -39 -6 -17 -27 -15 -37
8 -44 11 -3 20 -13 20 -22 0 -26 -100 -142 -142 -164 -13 -7 -20 -4 -31 16
-13 26 -13 26 -36 7 -20 -15 -22 -22 -12 -40 14 -27 14 -32 -3 -32 -8 0 -22
-7 -31 -16 -17 -17 -110 -44 -152 -44 -20 0 -23 5 -23 36 0 33 -2 35 -27 32
-23 -2 -29 -8 -31 -35 -3 -26 -8 -33 -26 -33 -30 0 -139 29 -146 39 -3 4 -15
14 -28 20 -22 12 -23 14 -7 37 15 23 14 25 -9 36 -22 9 -28 8 -45 -13 l-20
-24 -70 75 c-69 72 -93 111 -75 117 32 12 38 22 26 48 -12 26 -13 26 -38 11
-24 -17 -25 -16 -40 20 -16 38 -44 155 -44 186 0 11 10 18 28 20 22 2 28 8 30
36 3 30 1 32 -28 32 l-32 0 7 53 c11 83 47 183 65 178 32 -8 43 -5 54 12 9 15
7 21 -13 36 -24 18 -24 19 -7 46 26 39 131 145 144 145 7 0 12 -3 12 -7 1 -25
17 -34 43 -22 25 11 26 14 13 34 -16 24 -5 45 21 45 7 0 13 4 13 9 0 11 96 39
138 40 29 1 32 -2 32 -29z"/>
<path d="M770 1521 l0 -241 -215 0 -215 0 0 -32 c1 -136 118 -327 235 -384 22
-10 42 -22 45 -25 11 -14 88 -29 148 -29 69 0 152 17 152 31 0 5 6 9 13 9 33
0 134 79 173 136 77 112 89 152 89 299 0 120 -2 135 -28 194 -40 90 -100 165
-165 206 -31 19 -62 35 -68 35 -7 0 -20 7 -29 16 -9 9 -40 18 -75 21 l-60 6 0
-242z"/>
<path d="M310 288 c-13 -24 -36 -62 -52 -85 -15 -23 -31 -56 -34 -73 l-6 -30
55 0 c56 0 56 0 59 -32 2 -25 8 -34 26 -36 19 -3 22 1 22 28 0 18 6 33 15 36
8 4 15 15 15 25 0 10 -7 19 -15 19 -12 0 -15 17 -15 95 0 93 -1 95 -23 95 -17
0 -30 -12 -47 -42z m20 -103 c0 -41 -2 -45 -25 -45 -14 0 -25 5 -25 11 0 12
39 79 46 79 2 0 4 -20 4 -45z"/>
<path d="M471 308 c-5 -13 -12 -47 -16 -75 -6 -44 -4 -54 9 -59 9 -3 23 -1 31
6 24 20 58 8 66 -23 16 -61 -31 -104 -64 -57 -9 13 -20 17 -35 13 -26 -6 -27
-11 -5 -43 23 -34 33 -40 70 -40 63 0 110 86 83 151 -15 35 -37 49 -78 49 -26
0 -29 3 -24 25 4 23 9 25 54 25 46 0 49 2 46 23 -3 20 -9 22 -66 25 -57 3 -63
1 -71 -20z"/>
<path d="M1090 304 c0 -22 4 -25 28 -22 19 2 28 9 30 26 3 19 -1 22 -27 22
-27 0 -31 -4 -31 -26z"/>
<path d="M760 139 c0 -109 0 -110 23 -107 20 3 22 9 25 80 3 79 16 106 46 95
11 -5 16 -27 18 -89 3 -81 4 -83 28 -83 24 0 25 2 28 82 2 71 5 83 22 88 34
11 40 -4 40 -91 0 -83 0 -84 25 -84 25 0 25 0 25 93 0 78 -3 97 -18 110 -21
19 -54 22 -81 7 -12 -6 -29 -5 -49 2 -24 9 -37 9 -59 -1 -19 -9 -29 -9 -31 -2
-2 6 -12 11 -23 11 -18 0 -19 -8 -19 -111z"/>
<path d="M1095 237 c-3 -7 -4 -56 -3 -108 3 -93 3 -94 28 -94 l25 0 0 105 c0
101 -1 105 -23 108 -12 2 -24 -3 -27 -11z"/>
<path d="M1200 139 c0 -109 0 -110 23 -107 20 3 22 9 25 78 3 80 14 103 46 98
19 -3 21 -11 26 -88 5 -79 7 -85 28 -88 21 -3 22 -1 22 91 0 78 -3 97 -18 110
-22 20 -54 22 -85 6 -16 -9 -22 -9 -25 0 -2 6 -12 11 -23 11 -18 0 -19 -8 -19
-111z"/>
</g>
</svg>
