<?xml version="1.0" standalone="no"?>
<!DOCTYPE svg PUBLIC "-//W3C//DTD SVG 20010904//EN"
 "http://www.w3.org/TR/2001/REC-SVG-20010904/DTD/svg10.dtd">
<svg version="1.0" xmlns="http://www.w3.org/2000/svg"
 width="240.000000pt" height="240.000000pt" viewBox="0 0 240.000000 240.000000"
 preserveAspectRatio="xMidYMid meet">
<metadata>
Created by potrace 1.10, written by Peter Selinger 2001-2011
</metadata>
<g transform="translate(0.000000,240.000000) scale(0.100000,-0.100000)"
fill="#ffffff" stroke="none">
<path d="M1125 2110 c-232 -37 -435 -239 -529 -525 -45 -140 -59 -229 -59
-385 0 -207 33 -353 119 -525 94 -190 228 -313 404 -370 69 -23 205 -24 276
-2 170 51 314 182 408 372 86 172 119 318 119 525 0 207 -33 353 -119 525
-136 272 -379 424 -619 385z m227 -198 c123 -59 246 -221 302 -397 18 -57 46
-214 46 -256 l0 -29 -500 0 -500 0 0 29 c0 42 28 199 46 256 67 210 208 371
374 426 14 5 57 7 95 5 54 -2 86 -10 137 -34z m348 -771 c0 -42 -28 -199 -46
-256 -37 -116 -97 -218 -175 -297 -102 -104 -161 -132 -279 -132 -118 0 -177
28 -279 132 -80 81 -132 169 -171 288 -21 65 -50 219 -50 265 l0 29 500 0 500
0 0 -29z"/>
</g>
</svg>
